<svg width="67" height="65" viewBox="0 0 67 65" fill="none" xmlns="http://www.w3.org/2000/svg">
<path d="M33.1104 64.0593C50.9083 64.0593 65.4395 49.951 65.4395 32.4203C65.4395 14.8898 50.9083 0.78125 33.1104 0.78125C15.3127 0.78125 0.78125 14.8898 0.78125 32.4203C0.78125 49.951 15.3127 64.0593 33.1104 64.0593Z" fill="#00C6AE" stroke="black" stroke-width="1.5625"/>
<mask id="path-2-outside-1_2_716" maskUnits="userSpaceOnUse" x="13.7812" y="16.7812" width="41" height="36" fill="black">
<rect fill="white" x="13.7812" y="16.7812" width="41" height="36"/>
<path d="M29.5863 51.7812L15.2342 18.1812H25.5063L37.6023 47.2692H31.5543L43.9383 18.1812H53.3463L38.9463 51.7812H29.5863Z"/>
</mask>
<path d="M29.5863 51.7812L15.2342 18.1812H25.5063L37.6023 47.2692H31.5543L43.9383 18.1812H53.3463L38.9463 51.7812H29.5863Z" fill="#FBD953"/>
<path d="M29.5863 51.7812L29.1264 51.9777L29.2561 52.2812H29.5863V51.7812ZM15.2342 18.1812V17.6812H14.477L14.7744 18.3777L15.2342 18.1812ZM25.5063 18.1812L25.9679 17.9893L25.8398 17.6812H25.5063V18.1812ZM37.6023 47.2692V47.7692H38.3517L38.0639 47.0773L37.6023 47.2692ZM31.5543 47.2692L31.0942 47.0734L30.798 47.7692H31.5543V47.2692ZM43.9383 18.1812V17.6812H43.6077L43.4782 17.9854L43.9383 18.1812ZM53.3463 18.1812L53.8058 18.3782L54.1045 17.6812H53.3463V18.1812ZM38.9463 51.7812V52.2812H39.2759L39.4058 51.9782L38.9463 51.7812ZM29.5863 51.7812L30.0461 51.5848L15.6941 17.9848L15.2342 18.1812L14.7744 18.3777L29.1264 51.9777L29.5863 51.7812ZM15.2342 18.1812V18.6812H25.5063V18.1812V17.6812H15.2342V18.1812ZM25.5063 18.1812L25.0446 18.3732L37.1406 47.4612L37.6023 47.2692L38.0639 47.0773L25.9679 17.9893L25.5063 18.1812ZM37.6023 47.2692V46.7692H31.5543V47.2692V47.7692H37.6023V47.2692ZM31.5543 47.2692L32.0143 47.4651L44.3983 18.3771L43.9383 18.1812L43.4782 17.9854L31.0942 47.0734L31.5543 47.2692ZM43.9383 18.1812V18.6812H53.3463V18.1812V17.6812H43.9383V18.1812ZM53.3463 18.1812L52.8867 17.9843L38.4867 51.5843L38.9463 51.7812L39.4058 51.9782L53.8058 18.3782L53.3463 18.1812ZM38.9463 51.7812V51.2812H29.5863V51.7812V52.2812H38.9463V51.7812Z" fill="black" mask="url(#path-2-outside-1_2_716)"/>
<path d="M27.5863 50.7812L13.2342 17.1812H23.5063L35.6023 46.2692H29.5543L41.9383 17.1812H51.3463L36.9463 50.7812H27.5863Z" fill="#18191F"/>
</svg>
