<svg width="43" height="64" viewBox="0 0 43 64" fill="none" xmlns="http://www.w3.org/2000/svg">
<path fill-rule="evenodd" clip-rule="evenodd" d="M21.4117 32.0001C21.4117 26.1091 26.205 21.3334 32.1176 21.3334C38.0302 21.3334 42.8235 26.1091 42.8235 32.0001C42.8235 37.891 38.0302 42.6667 32.1176 42.6667C26.205 42.6667 21.4117 37.891 21.4117 32.0001Z" fill="#1ABCFE"/>
<path fill-rule="evenodd" clip-rule="evenodd" d="M0 53.3333C0 47.4424 4.79318 42.6666 10.7059 42.6666H21.4117V53.3333C21.4117 59.2242 16.6185 64 10.7059 64C4.79318 64 0 59.2242 0 53.3333Z" fill="#0ACF83"/>
<path fill-rule="evenodd" clip-rule="evenodd" d="M21.4117 0V21.3334H32.1176C38.0302 21.3334 42.8235 16.5576 42.8235 10.6667C42.8235 4.77563 38.0302 0 32.1176 0H21.4117Z" fill="#FF7262"/>
<path fill-rule="evenodd" clip-rule="evenodd" d="M0 10.6667C0 16.5576 4.79318 21.3334 10.7059 21.3334H21.4117V0H10.7059C4.79318 0 0 4.77563 0 10.6667Z" fill="#F24E1E"/>
<path fill-rule="evenodd" clip-rule="evenodd" d="M0 32.0001C0 37.891 4.79318 42.6667 10.7059 42.6667H21.4117V21.3334H10.7059C4.79318 21.3334 0 26.1091 0 32.0001Z" fill="#A259FF"/>
</svg>
