<svg width="64" height="64" viewBox="0 0 64 64" fill="none" xmlns="http://www.w3.org/2000/svg">
<g clip-path="url(#clip0_2041_170)">
<path d="M29.9042 0.0172226C29.7666 0.029733 29.3286 0.0735194 28.9346 0.104795C19.8444 0.924226 11.3298 5.8283 5.93704 13.3658C2.93412 17.5568 1.01349 22.3108 0.287782 27.3462C0.0312806 29.1038 0 29.623 0 32.0062C0 34.3894 0.0312806 34.9086 0.287782 36.6664C2.02698 48.6826 10.5791 58.7784 22.178 62.519C24.255 63.1884 26.4446 63.645 28.9346 63.9202C29.9042 64.0266 34.0958 64.0266 35.0654 63.9202C39.3634 63.4448 43.0044 62.3814 46.5956 60.5486C47.146 60.2672 47.2524 60.1922 47.1774 60.1296C47.1272 60.092 44.7812 56.9458 41.966 53.1426L36.8484 46.2306L30.436 36.7414C26.9076 31.5246 24.0046 27.2586 23.9796 27.2586C23.9546 27.2524 23.9296 31.4684 23.9172 36.6164C23.8984 45.63 23.892 45.9928 23.7794 46.2056C23.6168 46.512 23.4916 46.6372 23.229 46.7748C23.0288 46.8748 22.8536 46.8936 21.9088 46.8936H20.8266L20.5388 46.7122C20.3512 46.5934 20.2134 46.437 20.1196 46.2556L19.9883 45.9742L20.0008 33.4324L20.0196 20.8846L20.2134 20.6406C20.3136 20.5092 20.5262 20.3404 20.6764 20.259C20.933 20.134 21.033 20.1214 22.1154 20.1214C23.3916 20.1214 23.6044 20.1714 23.9358 20.5342C24.0298 20.6344 27.5018 25.8636 31.656 32.1626C35.81 38.4616 41.4906 47.0626 44.2808 51.2848L49.3482 58.9598L49.6046 58.791C51.8756 57.3148 54.278 55.213 56.1798 53.0238C60.2276 48.376 62.8364 42.7088 63.7122 36.6664C63.9688 34.9086 64 34.3894 64 32.0062C64 29.623 63.9688 29.1038 63.7122 27.3462C61.973 15.3299 53.421 5.23406 41.822 1.49345C39.7764 0.830398 37.5992 0.373768 35.1594 0.0985402C34.5588 0.0359882 30.4234 -0.0328188 29.9042 0.0172226ZM43.0044 19.3708C43.3048 19.5209 43.5488 19.8086 43.6364 20.1088C43.6864 20.2716 43.699 23.7494 43.6864 31.5872L43.6676 42.834L41.6844 39.794L39.695 36.754V28.5784C39.695 23.2928 39.72 20.3216 39.7576 20.1778C39.8576 19.8274 40.0766 19.5522 40.377 19.3895C40.6334 19.2582 40.7272 19.2457 41.7094 19.2457C42.6354 19.2457 42.798 19.2582 43.0044 19.3708Z" fill="black"/>
</g>
<defs>
<clipPath id="clip0_2041_170">
<rect width="64" height="64" fill="white"/>
</clipPath>
</defs>
</svg>
