<svg width="64" height="56" viewBox="0 0 64 56" fill="none" xmlns="http://www.w3.org/2000/svg">
<path d="M52.6208 18.1506C51.957 17.9259 51.269 17.7132 50.5606 17.5121C50.677 17.0448 50.7838 16.5836 50.879 16.1302C52.4384 8.68515 51.4188 2.68736 47.9368 0.712638C44.598 -1.18086 39.1378 0.793415 33.6232 5.51321C33.093 5.96708 32.5612 6.4476 32.0296 6.95119C31.6754 6.61799 31.3218 6.29601 30.9692 5.98803C25.1896 0.9413 19.3967 -1.18546 15.9181 0.794983C12.5826 2.69397 11.5948 8.33246 12.9986 15.3882C13.1342 16.0697 13.2927 16.7657 13.4718 17.4733C12.652 17.7022 11.8605 17.9462 11.1031 18.2058C4.32734 20.5289 0 24.1701 0 27.947C0 31.8478 4.6454 35.7602 11.7029 38.1325C12.2599 38.3197 12.8378 38.4967 13.4333 38.6647C13.24 39.43 13.0719 40.18 12.9307 40.9115C11.5922 47.8447 12.6375 53.3501 15.9642 55.2372C19.4003 57.1858 25.1672 55.1827 30.7826 50.3555C31.2264 49.9737 31.6718 49.5691 32.118 49.145C32.6964 49.6926 33.2738 50.2111 33.8482 50.6973C39.2874 55.3005 44.6594 57.1593 47.983 55.2671C51.4158 53.3127 52.5314 47.3986 51.083 40.2034C50.9724 39.6539 50.8438 39.0925 50.6992 38.5211C51.1042 38.4033 51.5018 38.2818 51.8894 38.1553C59.2264 35.7647 64 31.8997 64 27.947C64 24.1565 59.5332 20.4908 52.6208 18.1506ZM51.0296 35.603C50.6796 35.7171 50.3204 35.8272 49.9546 35.9338C49.1446 33.4121 48.0514 30.7306 46.7136 27.9601C47.9902 25.2556 49.0412 22.6084 49.8284 20.1029C50.4832 20.2892 51.1186 20.4857 51.731 20.693C57.6534 22.698 61.266 25.6628 61.266 27.947C61.266 30.38 57.3644 33.5387 51.0296 35.603ZM48.401 40.7256C49.0414 43.9071 49.1328 46.7838 48.7086 49.0325C48.3274 51.0533 47.5608 52.4005 46.613 52.94C44.5962 54.0881 40.283 52.5958 35.6312 48.659C35.098 48.2078 34.561 47.7259 34.022 47.2159C35.8254 45.2763 37.6278 43.0214 39.3868 40.517C42.4806 40.2471 45.4038 39.8057 48.0546 39.2031C48.185 39.7209 48.301 40.2288 48.401 40.7256ZM21.819 52.7416C19.8485 53.426 18.279 53.4457 17.3303 52.9078C15.3115 51.7626 14.4723 47.3424 15.6171 41.4131C15.7482 40.7339 15.9043 40.0364 16.0841 39.3234C18.7059 39.8936 21.6074 40.3039 24.7088 40.5512C26.4798 43.0016 28.334 45.2541 30.2028 47.2263C29.7946 47.614 29.3878 47.983 28.9834 48.3307C26.5004 50.4654 24.012 51.98 21.819 52.7416ZM12.5872 35.5882C9.46646 34.5393 6.88926 33.1758 5.12272 31.688C3.53536 30.3513 2.73394 29.0241 2.73394 27.947C2.73394 25.6551 6.20836 22.7317 12.0031 20.7449C12.7062 20.5038 13.4422 20.2766 14.2061 20.0632C15.0069 22.6251 16.0575 25.3038 17.3253 28.0125C16.0411 30.7612 14.9756 33.4827 14.1669 36.0747C13.6223 35.9207 13.0948 35.7588 12.5872 35.5882ZM15.6818 14.8718C14.479 8.82665 15.2778 4.26638 17.2879 3.12205C19.429 1.90301 24.1636 3.64112 29.1538 7.99871C29.4728 8.27723 29.793 8.56874 30.114 8.87035C28.2546 10.834 26.4172 13.0695 24.662 15.5056C21.652 15.78 18.7708 16.2207 16.1217 16.8109C15.9552 16.152 15.8076 15.5047 15.6818 14.8718ZM43.2884 21.5759C42.6552 20.5002 42.005 19.4498 41.3422 18.4281C43.3842 18.682 45.3408 19.019 47.178 19.4314C46.6264 21.1699 45.939 22.9878 45.1296 24.8512C44.5492 23.7673 43.935 22.6744 43.2884 21.5759ZM32.0306 10.792C33.2916 12.1356 34.5546 13.6357 35.7966 15.2634C34.545 15.2052 33.2778 15.175 32 15.175C30.7344 15.175 29.4764 15.2046 28.2324 15.2617C29.4758 13.6492 30.7498 12.1511 32.0306 10.792ZM20.7004 21.5944C20.0678 22.6733 19.4652 23.7602 18.8938 24.8493C18.0977 22.9923 17.4165 21.1662 16.8601 19.403C18.6862 19.0011 20.6334 18.6725 22.6624 18.4234C21.9902 19.4545 21.3348 20.5128 20.7004 21.5944ZM22.7208 37.6624C20.6244 37.4322 18.648 37.1207 16.8224 36.7299C17.3877 34.9352 18.0839 33.07 18.8969 31.1731C19.4698 32.2614 20.0748 33.3487 20.7112 34.4299C21.3596 35.5312 22.0314 36.6103 22.7208 37.6624ZM32.1062 45.2915C30.8104 43.9166 29.5178 42.3956 28.2554 40.7595C29.481 40.8067 30.7302 40.8311 32 40.8311C33.3044 40.8311 34.594 40.8022 35.8634 40.7465C34.617 42.4121 33.3588 43.9353 32.1062 45.2915ZM45.1558 31.0765C46.0112 32.9939 46.7322 34.8493 47.3048 36.6132C45.4492 37.0296 43.4456 37.365 41.3348 37.6142C41.9992 36.5786 42.655 35.5104 43.2994 34.4114C43.9514 33.2995 44.5704 32.1861 45.1558 31.0765ZM40.9312 33.068C39.9308 34.7739 38.9036 36.4026 37.861 37.9399C35.9618 38.0733 33.9998 38.1421 32 38.1421C30.0084 38.1421 28.071 38.0813 26.2056 37.9621C25.1208 36.4047 24.0714 34.7714 23.0772 33.0828C22.0858 31.3987 21.1736 29.7003 20.3468 28.0115C21.1734 26.3188 22.0834 24.6185 23.0692 22.9374C24.0576 21.2518 25.0976 19.6268 26.1722 18.0792C28.0756 17.9377 30.0274 17.8638 31.9998 17.8638C33.9812 17.8638 35.9356 17.9382 37.8384 18.081C38.8968 19.6173 39.93 21.2374 40.9222 22.9233C41.9256 24.628 42.8474 26.3168 43.6812 27.9733C42.85 29.6582 41.9302 31.3641 40.9312 33.068ZM46.5712 3.04208C48.7144 4.25753 49.5478 9.15951 48.2012 15.5875C48.1154 15.9977 48.0186 16.4154 47.9136 16.8388C45.2584 16.2363 42.375 15.7879 39.3564 15.5094C37.5978 13.0466 35.7754 10.8075 33.9462 8.86911C34.438 8.40384 34.929 7.96018 35.4182 7.5415C40.143 3.49759 44.5592 1.90099 46.5712 3.04208ZM32 22.3265C35.1562 22.3265 37.715 24.8428 37.715 27.947C37.715 31.051 35.1562 33.5674 32 33.5674C28.8438 33.5674 26.285 31.051 26.285 27.947C26.285 24.8428 28.8438 22.3265 32 22.3265Z" fill="#00D8FF"/>
</svg>
