<svg width="64" height="64" viewBox="0 0 64 64" fill="none" xmlns="http://www.w3.org/2000/svg">
<path d="M0 32V64H32H64V32V0H32H0V32Z" fill="#007ACC"/>
<path d="M14.1528 32.2123L14.1324 34.8332H18.2975H22.4626L22.4626 46.6681V58.5031H25.4086H28.3547V46.6681L28.3547 34.8332H32.5197H36.6848V32.2631C36.6848 30.8408 36.6543 29.6523 36.6137 29.6218C36.5832 29.5811 31.514 29.5608 25.368 29.571L14.1832 29.6015L14.1528 32.2123Z" fill="white"/>
<path d="M51.6417 29.5271C53.2671 29.9335 54.5065 30.6547 55.6443 31.8331C56.2335 32.463 57.1071 33.6109 57.1782 33.8852C57.1985 33.9665 54.415 35.8357 52.7287 36.882C52.6677 36.9227 52.4239 36.6585 52.1496 36.2522C51.3268 35.0535 50.4633 34.5354 49.1427 34.4439C47.2023 34.3119 45.9528 35.3277 45.963 37.0243C45.963 37.522 46.0341 37.8166 46.2373 38.223C46.6639 39.1068 47.4563 39.635 49.9452 40.7119C54.5268 42.6827 56.4874 43.983 57.7065 45.8319C59.0677 47.8941 59.3725 51.1855 58.4481 53.6338C57.4322 56.2954 54.9128 58.1036 51.3674 58.703C50.2703 58.896 47.6696 58.8655 46.4912 58.6522C43.9211 58.195 41.483 56.9252 39.9795 55.2592C39.3903 54.609 38.2423 52.9125 38.3135 52.7906C38.3439 52.75 38.6081 52.5874 38.9027 52.4147C39.1871 52.2522 40.2639 51.6325 41.2798 51.0433L43.1185 49.9766L43.5046 50.5455C44.043 51.3684 45.2214 52.496 45.9325 52.8719C47.9744 53.9487 50.7782 53.7963 52.1598 52.5569C52.749 52.0185 52.9928 51.4598 52.9928 50.6369C52.9928 49.8954 52.9014 49.5703 52.5154 49.0115C52.0176 48.3004 51.0017 47.7011 48.1166 46.4515C44.815 45.0293 43.3928 44.1455 42.0925 42.7436C41.3408 41.9309 40.6296 40.6306 40.335 39.5436C40.0912 38.6395 40.0303 36.3741 40.2233 35.4598C40.9039 32.27 43.3116 30.0452 46.7858 29.3849C47.9135 29.1716 50.5344 29.2528 51.6417 29.5271Z" fill="white"/>
</svg>
